<svg width="671" height="680" viewBox="0 0 671 680" fill="none" xmlns="http://www.w3.org/2000/svg">
<g clip-path="url(#clip0_633_1317)">
<path d="M520.505 113.561L525.621 140.433L500.117 147.628L503.286 118.938L520.505 113.561Z" fill="#A0616A"/>
<path d="M671 669.824C671 670.668 670.322 671.347 669.478 671.347H1.52191C0.677917 671.347 0 670.668 0 669.824C0 668.979 0.677917 668.301 1.52191 668.301H669.478C670.322 668.301 671 668.979 671 669.824Z" fill="#3F3D56"/>
<path d="M215.664 304.951H478.693C508.521 304.951 532.701 329.145 532.701 358.99V614.194C532.701 644.039 508.521 668.233 478.693 668.233H215.664C185.836 668.233 161.656 644.039 161.656 614.194V358.99C161.656 329.145 185.836 304.951 215.664 304.951Z" fill="white"/>
<path d="M215.664 669.512H478.694C509.179 669.512 533.98 644.696 533.98 614.194V358.99C533.98 328.488 509.179 303.671 478.694 303.671H215.664C185.179 303.671 160.377 328.488 160.377 358.99V614.194C160.377 644.696 185.179 669.512 215.664 669.512ZM478.694 306.231C507.769 306.231 531.423 329.898 531.423 358.99V614.194C531.423 643.286 507.769 666.953 478.694 666.953H215.664C186.589 666.953 162.935 643.286 162.935 614.194V358.99C162.935 329.898 186.589 306.231 215.664 306.231L478.694 306.231Z" fill="#3F3D56"/>
<path d="M196.61 415.591H302.334C306.818 415.591 310.467 411.94 310.467 407.453C310.467 402.966 306.818 399.316 302.334 399.316H196.61C192.126 399.316 188.478 402.966 188.478 407.453C188.478 411.94 192.126 415.591 196.61 415.591Z" fill="#83BB62"/>
<path d="M295.794 479.582H398.563C401.154 479.582 403.262 477.473 403.262 474.881C403.262 472.288 401.154 470.18 398.563 470.18H295.794C293.203 470.18 291.096 472.288 291.096 474.881C291.096 477.473 293.203 479.582 295.794 479.582Z" fill="#83BB62"/>
<path d="M441.048 322.428H499.72C499.94 322.428 500.117 322.606 500.117 322.825V329.66C500.117 329.879 499.94 330.057 499.72 330.057H441.048C440.828 330.057 440.651 329.879 440.651 329.66V322.825C440.651 322.606 440.828 322.428 441.048 322.428Z" fill="#83BB62"/>
<path d="M243.418 330.057C240.05 330.057 237.319 327.324 237.319 323.954C237.319 320.583 240.05 317.851 243.418 317.851C246.787 317.851 249.518 320.583 249.518 323.954C249.518 327.324 246.787 330.057 243.418 330.057Z" fill="#3F3D56"/>
<path d="M226.645 330.057C223.277 330.057 220.546 327.324 220.546 323.954C220.546 320.583 223.277 317.851 226.645 317.851C230.013 317.851 232.744 320.583 232.744 323.954C232.744 327.324 230.013 330.057 226.645 330.057Z" fill="#3F3D56"/>
<path d="M209.874 330.057C206.505 330.057 203.774 327.324 203.774 323.954C203.774 320.583 206.505 317.851 209.874 317.851C213.242 317.851 215.973 320.583 215.973 323.954C215.973 327.324 213.242 330.057 209.874 330.057Z" fill="#3F3D56"/>
<path d="M479.334 504.749C479.334 505.594 478.656 506.272 477.812 506.272H216.546C215.702 506.272 215.024 505.594 215.024 504.749C215.024 503.905 215.702 503.227 216.546 503.227H477.812C478.656 503.227 479.334 503.905 479.334 504.749Z" fill="#3F3D56"/>
<path d="M399.652 129.138C394.09 124.539 387.21 123.684 384.286 127.226C381.361 130.768 383.5 137.366 389.065 141.966C391.263 143.834 393.875 145.148 396.685 145.798L420.497 164.985L429.258 153.612L404.852 135.904C403.684 133.266 401.901 130.946 399.652 129.138Z" fill="#A0616A"/>
<path d="M537.288 172.429C537.3 171.58 537.292 164.179 531.816 159.5C525.525 154.127 516.648 156.302 513.535 157.065C506.343 158.827 505.753 161.914 498.999 165.086C486.363 171.02 502.195 167.983 494.677 166.08C492.074 165.421 454.631 162.823 445.311 157.083C427.185 145.92 414.834 139.151 414.834 139.151L406.76 155.308C406.76 155.308 418.435 171.551 434.867 183.585C451.721 195.928 460.149 202.1 472.956 204.484C474.059 204.69 501.185 209.324 523.032 192.992C528.015 189.267 537.146 182.441 537.288 172.429Z" fill="#E6E6E6"/>
<path d="M512.243 131.337C496.709 131.337 484.116 118.737 484.116 103.194C484.116 87.6511 496.709 75.0511 512.243 75.0511C527.777 75.0511 540.369 87.6511 540.369 103.194C540.369 118.737 527.777 131.337 512.243 131.337Z" fill="#A0616A"/>
<path d="M291.966 292.268L320.932 262.601L335.885 278.207L314.304 306.653L292.898 309.103L291.966 292.268Z" fill="#A0616A"/>
<path d="M457.365 236.635C455.671 236.775 450.287 237.855 445.141 235.022C441.629 233.088 439.828 230.214 439.219 229.299C431.672 217.958 402.704 200.271 376.706 199.183C370.818 198.936 366.943 199.619 363.421 201.456C358.426 204.061 356.432 207.793 350.094 216.534C346.627 221.316 342.791 225.82 339.282 230.571C318.741 258.386 310.953 260.57 311.749 269.487C312.632 279.381 323.296 288.767 330.384 287.684C333.287 287.24 334.411 285.22 338.289 281.132C349.66 269.145 354.364 271.359 362.46 262.178C371.912 251.458 370.674 242.57 375.606 242.226C380.179 241.908 382.122 249.49 391.885 259.563C396.352 264.172 399.533 266.287 409.225 273.014C446.966 299.212 447.568 301.053 455.185 303.143C458.517 304.057 482.169 310.545 490.595 300.22C503.779 284.062 472.631 235.365 457.365 236.635Z" fill="#2F2E41"/>
<path d="M300.821 298.973C298.691 298.015 296.2 296.896 295.398 294.323C294.856 292.581 295.168 290.434 296.289 288.95C297.583 287.238 299.497 287.012 299.42 286.709C299.302 286.248 294.775 286.428 289.806 288.186C288.868 288.518 284.62 290.071 279.216 294.292C274.887 297.674 275.469 298.352 272.754 300.302C264.421 306.288 256.604 301.57 252.095 307.184C250.355 309.351 249.612 312.427 250.345 314.914C251.815 319.908 258.968 321.627 262.877 322.515C272.292 324.652 279.418 322.907 286.859 321.653C312.164 317.386 326.382 321.272 328.285 315.406C328.645 314.296 328.06 314.39 326.108 306.243C324.183 298.202 324.246 295.994 322.606 295.35C320.137 294.381 318.479 298.79 312.26 300.299C306.749 301.636 302.202 299.593 300.821 298.973Z" fill="#2F2E41"/>
<path d="M343.465 389.323L350.783 348.499L371.914 353.011L370.021 388.675L353.683 402.729L343.465 389.323Z" fill="#A0616A"/>
<path d="M449.101 250.357C447.778 251.425 443.929 255.343 438.081 255.891C434.09 256.264 430.986 254.897 429.97 254.483C417.359 249.339 383.464 250.98 361.341 264.687C356.331 267.791 353.507 270.533 351.624 274.033C348.953 278.994 349.397 283.202 349.059 293.997C348.873 299.901 348.227 305.784 347.99 311.686C346.603 346.243 341.385 352.426 347.048 359.357C353.331 367.047 367.423 368.823 372.68 363.944C374.832 361.945 374.629 359.643 375.544 354.081C378.225 337.773 383.361 336.962 384.907 324.816C386.711 310.636 380.699 303.976 384.587 300.921C388.192 298.089 394.056 303.271 407.787 306.12C414.07 307.424 417.889 307.386 429.684 307.507C475.615 307.98 477.147 309.165 484.622 306.614C487.892 305.498 511.104 297.578 512.281 284.3C514.123 263.522 461.021 240.729 449.101 250.357Z" fill="#2F2E41"/>
<path d="M354.554 389.894C352.254 390.299 349.565 390.773 347.457 389.094C346.031 387.957 345.085 386.005 345.179 384.148C345.289 382.004 346.746 380.742 346.512 380.535C346.156 380.22 342.511 382.912 339.386 387.158C338.796 387.96 336.153 391.632 334.05 398.161C332.366 403.392 333.228 403.625 332.076 406.764C328.54 416.4 319.425 416.888 318.844 424.067C318.62 426.837 319.732 429.799 321.734 431.446C325.754 434.752 332.637 432.156 336.369 430.694C345.359 427.173 350.276 421.725 355.729 416.506C374.273 398.758 388.219 393.985 386.501 388.062C386.176 386.941 385.745 387.348 379.559 381.703C373.452 376.131 372.265 374.268 370.547 374.657C367.96 375.242 369.063 379.822 364.764 384.565C360.954 388.768 356.044 389.632 354.554 389.894Z" fill="#2F2E41"/>
<path d="M508.408 108.574C507.313 104.655 508.688 103.227 507.287 101.467C507.287 101.467 506.723 100.76 501.679 98.8492C503.167 90.2111 502.053 88.7504 502.053 88.7504C500.769 87.067 498.197 86.66 496.446 86.8802C492.743 87.346 492.087 90.6957 489.717 90.6206C486.444 90.5167 482.518 83.9602 483.736 78.2775C484.731 73.642 489.017 70.1996 490.091 70.7969C491.157 71.3892 494.992 68.7775 496.446 69.3008C497.439 69.6582 502.115 69.1827 503.175 69.6748C504.332 70.2123 507.648 73.5583 507.965 73.1367C510.168 70.207 510.121 69.1841 511.399 68.5527C513.663 67.4339 516.125 69.5019 520.37 71.545C529.104 75.7487 531.662 73.2411 535.696 76.7814C537.734 78.5698 538.827 81.9877 540.93 88.7504C543.87 98.208 545.34 102.937 543.92 107.452C542.472 112.057 540.339 111.054 537.192 117.551C533.688 124.782 534.895 128.986 531.584 130.642C529.026 131.922 524.913 131.107 523.361 128.772C520.702 124.773 527.573 119.364 525.23 113.062C523.791 109.194 519.353 106.261 516.632 107.078C513.555 108.001 513.328 113.522 511.399 113.436C509.746 113.363 508.599 109.257 508.408 108.574Z" fill="#2F2E41"/>
<path d="M529.715 135.504C523.96 129.047 500.516 135.73 498.315 145.977C497.41 150.192 500.751 151.971 499.81 156.824C498.434 163.922 490.642 163.438 484.858 170.663C476.646 180.921 485.106 190.948 475.886 208.066C473.916 211.724 472.256 214.807 468.784 217.791C460.817 224.638 453.402 222.29 449.346 228.638C446.312 233.385 447.558 239.236 447.85 240.607C449.048 246.227 452.293 247.597 454.579 252.202C458.383 259.864 454.076 265.489 453.831 274.644C453.525 286.098 459.609 301.975 471.774 307.185C485.442 313.037 501.926 303.344 509.903 293.719C514.663 287.976 516.045 282.679 518.127 276.14C527.434 246.916 532.691 249.559 539.808 226.394C547.944 199.911 549.544 168.886 539.808 159.068C538.518 157.767 534.967 154.759 532.706 149.343C529.664 142.056 532.292 138.395 529.715 135.504Z" fill="#E6E6E6"/>
<path d="M444.67 285.82C440.208 291.493 439.516 298.396 443.125 301.237C446.733 304.078 453.275 301.781 457.738 296.106C459.552 293.863 460.803 291.218 461.386 288.392L479.99 264.116L470.377 256.78L451.307 280.457C448.698 281.689 446.423 283.528 444.67 285.82Z" fill="#A0616A"/>
<path d="M512.804 160.113C511.976 159.928 504.733 158.426 499.039 162.836C492.497 167.901 492.814 177.04 492.925 180.245C493.182 187.65 496.082 188.857 497.807 196.12C501.035 209.709 494.888 222.337 491.492 229.314C490.316 231.729 486.54 239.118 479.022 247.076C464.402 262.554 451.357 270.699 451.357 270.699L465.371 283.163C465.371 283.163 487.694 276.355 502.82 262.715C518.336 248.724 542.197 199.22 547.143 187.161C547.569 186.123 541.535 203.006 530.014 178.274C527.386 172.632 522.571 162.296 512.804 160.113Z" fill="#E6E6E6"/>
<path d="M320.652 539.609C329.559 540.975 336.075 546.681 335.205 552.353C334.335 558.025 326.41 561.515 317.5 560.147C313.933 559.649 310.537 558.304 307.596 556.224L269.927 549.959L272.441 535.061L310.025 540.382C313.455 539.279 317.099 539.014 320.652 539.609Z" fill="#FFB6B6"/>
<path d="M158.329 493.169L172.935 524.181L246.362 548.914L307.292 552.166L308.818 537.523L242.784 523.708L175.025 491.669L158.329 493.169Z" fill="#E6E6E6"/>
<path d="M293.756 610.923L306.87 644.112L323.84 632.534L313.812 597.802L293.756 610.923Z" fill="#FFB6B6"/>
<path d="M348.522 598.574L383.234 631.762L369.35 646.427L333.866 618.641L348.522 598.574Z" fill="#FFB6B6"/>
<path d="M151.822 490.518L152.207 487.817L161.078 470.45L190.391 478.169L184.991 502.095L151.822 490.518Z" fill="#FFB6B6"/>
<path d="M164.164 606.292L163.262 617.885C163.262 617.885 159.535 666.495 189.619 670.354C219.703 674.213 232.816 678.072 250.558 647.971L278.328 598.574L294.548 617.885L316.125 600.889C316.125 600.889 300.697 540.687 288.355 538.371C286.813 538.082 285.27 537.937 283.751 537.905C273.534 537.692 263.902 542.693 257.789 550.888L222.788 597.802L210.061 592.013L164.164 606.292Z" fill="#2F2E41"/>
<path d="M330.782 642.568L323.84 629.447L303.784 643.34C303.784 643.34 299.156 660.32 306.098 662.636C313.041 664.951 332.325 661.864 332.325 661.864C332.325 661.864 367.809 669.582 368.58 662.636C369.351 655.689 352.381 654.145 352.381 654.145L330.782 642.568Z" fill="#2F2E41"/>
<path d="M255.186 633.306L308.796 599.507L336.18 624.044L354.693 602.433C354.693 602.433 320.753 552.264 310.725 549.949C300.697 547.633 284.498 546.09 284.498 546.09L235.13 591.627L255.186 633.306Z" fill="#2F2E41"/>
<path d="M384.007 628.675L366.265 647.971L368.605 649.973C368.605 649.973 373.207 670.032 384.007 663.246C394.806 656.461 395.577 654.917 395.577 654.917C395.577 654.917 426.432 661.864 429.518 649.514C432.603 637.165 424.118 639.481 424.118 639.481L416.414 644.112L384.007 628.675Z" fill="#2F2E41"/>
<path d="M181.134 486.659C167.502 486.659 156.45 475.601 156.45 461.96C156.45 448.32 167.502 437.262 181.134 437.262C194.767 437.262 205.818 448.32 205.818 461.96C205.818 475.601 194.767 486.659 181.134 486.659Z" fill="#FFB6B6"/>
<path d="M186.921 497.079L151.437 486.273C151.437 486.273 137.552 518.69 139.867 533.354C142.181 548.019 163.264 617.885 163.264 617.885L210.062 592.013C210.062 592.013 210.833 576.577 213.147 569.63C215.462 562.684 222.79 541.459 206.591 523.707C190.392 505.954 186.921 497.079 186.921 497.079Z" fill="#E6E6E6"/>
<path d="M265.017 659.148C270.792 666.07 271.903 674.663 267.499 678.339C263.096 682.016 254.847 679.384 249.071 672.458C246.726 669.724 245.069 666.467 244.24 662.96L220.142 633.321L231.881 623.816L256.539 652.691C259.84 654.135 262.747 656.349 265.017 659.148Z" fill="#FFB6B6"/>
<path d="M159.703 512.65L151.316 545.891L192.365 611.637L234.269 653.777L247.852 642.503L205.59 589.888L173.556 522.096L159.703 512.65Z" fill="#E6E6E6"/>
<path d="M203.889 457.715C197.559 457.7 197.2 457.742 196.176 457.715C188.324 457.508 186.271 454.417 182.291 454.628C175.188 455.004 184.563 490.638 188.462 507.112C192.286 523.269 179.363 537.747 178.434 538.757C165.317 553.031 142.276 555.641 138.322 549.563C135.122 544.643 146.464 537.162 143.722 526.408C141.042 515.896 128.668 517.015 125.209 507.112C121.587 496.741 133.76 491.511 141.408 466.205C145.8 451.673 145.023 448.965 149.122 439.963C160.077 415.903 213.775 426.147 207.746 448.453C206.58 452.768 209.684 457.729 203.889 457.715Z" fill="#2F2E41"/>
<path d="M125.068 164.512H384.494C391.83 164.512 397.799 158.54 397.799 151.2V13.3128C397.799 5.97253 391.83 0 384.494 0H125.068C117.732 0 111.763 5.97252 111.763 13.3128V151.2C111.763 158.54 117.732 164.512 125.068 164.512Z" fill="white"/>
<path d="M125.068 164.512H384.494C391.83 164.512 397.799 158.54 397.799 151.2V13.3128C397.799 5.97253 391.83 0 384.494 0H125.068C117.732 0 111.763 5.97252 111.763 13.3128V151.2C111.763 158.54 117.732 164.512 125.068 164.512ZM384.494 2.22314C390.605 2.22314 395.577 7.19807 395.577 13.3128V151.2C395.577 157.314 390.605 162.289 384.494 162.289H125.068C118.957 162.289 113.985 157.314 113.985 151.2V13.3128C113.985 7.19807 118.957 2.22314 125.068 2.22314H384.494Z" fill="#3F3D56"/>
<path d="M145.091 16.6736C143.25 16.6736 141.758 15.1806 141.758 13.3389C141.758 11.4971 143.25 10.0042 145.091 10.0042C146.932 10.0042 148.424 11.4971 148.424 13.3389C148.424 15.1806 146.932 16.6736 145.091 16.6736Z" fill="#3F3D56"/>
<path d="M136.204 16.6736C134.364 16.6736 132.872 15.1806 132.872 13.3389C132.872 11.4971 134.364 10.0042 136.204 10.0042C138.045 10.0042 139.537 11.4971 139.537 13.3389C139.537 15.1806 138.045 16.6736 136.204 16.6736Z" fill="#3F3D56"/>
<path d="M127.316 16.6736C125.475 16.6736 123.983 15.1806 123.983 13.3389C123.983 11.4971 125.475 10.0042 127.316 10.0042C129.156 10.0042 130.648 11.4971 130.648 13.3389C130.648 15.1806 129.156 16.6736 127.316 16.6736Z" fill="#3F3D56"/>
<path d="M378.914 67.25C379.833 67.25 380.58 67.9979 380.58 68.9174C380.58 69.3657 380.407 69.7803 380.093 70.0865C379.776 70.411 379.361 70.5847 378.914 70.5847H129.539C128.62 70.5847 127.872 69.8368 127.872 68.9174C127.872 68.469 128.045 68.0544 128.359 67.7483C128.676 67.4237 129.091 67.25 129.539 67.25H378.914Z" fill="#E6E6E6"/>
<path d="M160.644 66.6942V71.1405H378.913C379.524 71.1405 380.079 70.8959 380.479 70.4847C380.89 70.0845 381.135 69.5287 381.135 68.9174C381.135 67.6946 380.135 66.6942 378.913 66.6942H160.644Z" fill="#83BB62"/>
<path d="M132.316 58.3574H154.535C156.985 58.3574 158.979 56.3633 158.979 53.9112C158.979 51.459 156.985 49.4649 154.535 49.4649H132.316C129.866 49.4649 127.873 51.459 127.873 53.9112C127.873 56.3633 129.866 58.3574 132.316 58.3574Z" fill="#E6E6E6"/>
<path d="M277.847 35.0145H377.248C379.698 35.0145 381.691 33.0204 381.691 30.5682C381.691 28.116 379.698 26.1219 377.248 26.1219H277.847C275.397 26.1219 273.403 28.116 273.403 30.5682C273.403 33.0204 275.397 35.0145 277.847 35.0145Z" fill="#E6E6E6"/>
<path d="M378.914 117.271C379.833 117.271 380.58 118.019 380.58 118.938C380.58 119.386 380.407 119.801 380.093 120.107C379.776 120.432 379.361 120.605 378.914 120.605H129.539C128.62 120.605 127.872 119.857 127.872 118.938C127.872 118.49 128.045 118.075 128.359 117.769C128.676 117.444 129.091 117.271 129.539 117.271H378.914Z" fill="#E6E6E6"/>
<path d="M246.185 116.715V121.161H378.913C379.524 121.161 380.079 120.917 380.479 120.505C380.89 120.105 381.135 119.549 381.135 118.938C381.135 117.715 380.135 116.715 378.913 116.715H246.185Z" fill="#83BB62"/>
<path d="M132.316 108.378H154.535C156.985 108.378 158.979 106.384 158.979 103.932C158.979 101.48 156.985 99.4856 154.535 99.4856H132.316C129.866 99.4856 127.873 101.48 127.873 103.932C127.873 106.384 129.866 108.378 132.316 108.378Z" fill="#E6E6E6"/>
</g>
<defs>
<clipPath id="clip0_633_1317">
<rect width="671" height="680" fill="white" transform="matrix(-1 0 0 1 671 0)"/>
</clipPath>
</defs>
</svg>